<svg width="48" height="48" viewBox="0 0 48 48" fill="none" xmlns="http://www.w3.org/2000/svg">
<g clip-path="url(#clip0)">
<path d="M29.429 19.5413L22.217 26.3531L18.7558 22.7923C18.3721 22.3972 17.7402 22.3883 17.3456 22.772C16.9505 23.1561 16.9415 23.7875 17.3253 24.1826L21.4765 28.444C21.8622 28.832 22.4855 28.8453 22.8871 28.4737L30.8197 20.9917C31.0123 20.81 31.1249 20.5592 31.1323 20.2946C31.1397 20.0301 31.0416 19.7734 30.8595 19.5811C30.4735 19.1798 29.837 19.1623 29.429 19.5413Z" fill="#FA5656"/>
<path d="M24.0774 9.05792C15.835 9.05792 9.13287 15.76 9.13287 24.0024C9.13287 32.2452 15.835 38.9473 24.0774 38.9473C32.3202 38.9473 39.0223 32.2452 39.0223 24.0024C39.0223 15.76 32.3202 9.05792 24.0774 9.05792ZM24.0774 36.9467C16.9353 36.9467 11.1335 31.1347 11.1335 24.0024C11.1335 16.8701 16.9353 11.0585 24.0774 11.0585C31.2265 11.0585 37.0217 16.8537 37.0217 24.0024C37.0217 31.1512 31.2265 36.9467 24.0774 36.9467Z" fill="#FA5656"/>
<path d="M44.644 18.5007L44.9742 12.5687C44.9972 12.1706 44.7808 11.7966 44.424 11.6185L39.1423 8.94769L36.4715 3.66597C36.2898 3.31234 35.9182 3.09704 35.5212 3.11579L29.5791 3.43621L24.6276 0.164871C24.2939 -0.0551197 23.8613 -0.0551197 23.5272 0.164871L18.5757 3.43621L12.6441 3.10602C12.2456 3.08258 11.872 3.29905 11.6938 3.6562L9.02269 8.93793L3.74134 11.6087C3.38733 11.79 3.17242 12.1616 3.19117 12.559L3.52096 18.4909L0.250015 23.4425C0.0300243 23.7762 0.0300243 24.2087 0.250015 24.5428L3.51119 29.5041L3.18101 35.4361C3.15796 35.8342 3.37404 36.2082 3.73118 36.3864L9.01292 39.0571L11.6837 44.3388C11.865 44.6929 12.2366 44.9078 12.634 44.889L18.5659 44.5588L23.5175 47.8298C23.8492 48.0568 24.2861 48.0568 24.6178 47.8298L29.5694 44.5588L35.5013 44.889C35.8995 44.9121 36.273 44.6956 36.4516 44.3388L39.1224 39.0571L44.4041 36.3864C44.7577 36.2047 44.973 35.8334 44.9543 35.4361L44.6241 29.5041L47.895 24.5526C48.115 24.2189 48.115 23.7859 47.895 23.4522L44.644 18.5007ZM42.7833 28.6839C42.6614 28.8629 42.6047 29.0782 42.6235 29.2943L42.9333 34.9058L37.9419 37.4265C37.7516 37.5219 37.5973 37.6766 37.5019 37.8669L34.9808 42.8583L29.3693 42.5484C29.1544 42.5406 28.9422 42.5961 28.759 42.7082L24.0774 45.7994L19.3962 42.7082C19.2337 42.5984 19.0422 42.5391 18.8461 42.5383H18.7961L13.1841 42.8485L10.6634 37.8567C10.5681 37.6664 10.4137 37.5121 10.2231 37.4168L5.2215 34.9058L5.53175 29.2943C5.53956 29.0794 5.48369 28.8672 5.37154 28.6839L2.28073 24.0024L5.37154 19.3209C5.49385 19.1423 5.5505 18.9266 5.53175 18.7109L5.2215 13.099L10.2133 10.5783C10.4036 10.4829 10.5579 10.3286 10.6533 10.1383L13.174 5.14651L18.7859 5.45676C19.0004 5.46418 19.2126 5.4087 19.3962 5.29655L24.0774 2.20574L28.759 5.29655C28.9379 5.41886 29.1536 5.47552 29.3693 5.45676L34.9808 5.14651L37.5019 10.1383C37.5973 10.3286 37.7516 10.4829 37.9419 10.5783L42.9333 13.099L42.6235 18.7109C42.6156 18.9254 42.6715 19.1376 42.7833 19.3209L45.8745 24.0024L42.7833 28.6839Z" fill="#FA5656"/>
</g>
<defs>
<clipPath id="clip0">
<rect width="48" height="48" fill="white"/>
</clipPath>
</defs>
</svg>
